<?xml version="1.0" encoding="UTF-8"?> <svg xmlns="http://www.w3.org/2000/svg" id="Layer_2" width="428.16" height="252" viewBox="0 0 428.16 252"><g id="Layer_1-2"><path d="M230.24,201.64c1.1-14.87-18.61-12.29-18.61.57,0,16.63,20.83,19.87,20.83,33.95,0,16.61-36.88,17.22-36.88-5.81,0-5.98,2.34-8.71,2.34-8.71,0,0-4.77,2.88-4.77,11.33,0,25.3,47.19,24.48,47.19,2.86,0-18.21-25.02-21.79-25.02-33.15,0-7.58,8.62-7.37,9.84.76,2.26-.77,4.75.16,4.75.16,0,0,.25-.86.33-1.95h0Z" style="fill:#fefffe;"></path><path d="M225.37,204.78c1.33,8.1,5.24,7.94,5.24,7.94,0,0-1.77-3.26-1.04-7.74-1.58-.78-4.2-.2-4.2-.2h0Z" style="fill:#fefffe;"></path><path d="M205.89,217.79c0-2.44.6-4.74,1.66-6.76-2.38,2.31-3.86,5.54-3.86,9.12,0,7.02,5.69,12.71,12.72,12.71,1.22,0,2.41-.18,3.53-.5-7.8-.29-14.05-6.7-14.05-14.58h0Z" style="fill:#fefffe;"></path><path d="M200.49,224.22c0-1.86.46-3.6,1.26-5.14-1.81,1.76-2.94,4.22-2.94,6.94,0,5.34,4.33,9.67,9.68,9.67.93,0,1.83-.13,2.69-.38-5.94-.22-10.69-5.1-10.69-11.09h0Z" style="fill:#fefffe;"></path><path d="M240.33,250.21c0,.98-.82,1.78-1.82,1.78s-1.82-.8-1.82-1.78.82-1.79,1.82-1.79,1.82.8,1.82,1.79ZM237.12,250.21c0,.82.64,1.46,1.39,1.46s1.39-.65,1.39-1.46-.63-1.48-1.39-1.48-1.39.65-1.39,1.48ZM237.87,249.8c0-.18-.04-.27-.17-.28h-.06c-.02-.05-.02-.14.03-.15.32,0,.59-.03.84-.03.33,0,.77.06.77.47,0,.21-.15.35-.28.4-.03,0-.03.04,0,.1.15.29.28.49.38.56.06.04.09.06.14.08.03,0,.03.09,0,.1-.07,0-.14,0-.22,0-.24,0-.42-.09-.56-.29-.08-.12-.14-.23-.22-.36-.03-.05-.07-.08-.13-.08s-.06.04-.06.06v.2c0,.2,0,.27.18.29h.05s.03.14,0,.15c-.15,0-.28,0-.46,0-.17,0-.3,0-.43,0-.05,0-.05-.13-.03-.14h.06c.17-.05.17-.09.17-.3v-.8h0ZM238.33,250.07c0,.1,0,.1.15.1.2,0,.26-.18.26-.28,0-.23-.1-.36-.24-.36-.15,0-.17.03-.17.11v.42h0Z" style="fill:#fefffe;"></path><path d="M266.54,213c0-.63-.52-.98-1.49-.98s-1.45.52-1.45,1.14h-1.65c0-1.63,1.11-2.69,3.1-2.69s3.11.98,3.11,2.53c0,1.18-.68,1.87-2.63,2.67-1.16.47-1.93,1.04-1.93,1.66h4.72v1.47h-6.51v-1.14c0-1.34,1.13-2.56,3.15-3.39,1.23-.52,1.59-.79,1.59-1.27h0Z" style="fill:#fefffe;"></path><path d="M288.79,213c0-.63-.52-.98-1.49-.98s-1.45.52-1.45,1.14h-1.65c0-1.63,1.11-2.69,3.1-2.69s3.11.98,3.11,2.53c0,1.18-.68,1.87-2.63,2.67-1.16.47-1.93,1.04-1.93,1.66h4.72v1.47h-6.51v-1.14c0-1.34,1.13-2.56,3.15-3.39,1.23-.52,1.59-.79,1.59-1.27h0Z" style="fill:#fefffe;"></path><path d="M272.8,214.72c0-2.73,1.29-4.25,3.64-4.25s3.65,1.51,3.65,4.25-1.31,4.24-3.65,4.24-3.64-1.5-3.64-4.24ZM276.44,217.41c1.31,0,2.02-.95,2.02-2.69s-.7-2.7-2.02-2.7-2.02.95-2.02,2.7.7,2.69,2.02,2.69Z" style="fill:#fefffe;"></path><path d="M301.21,213h-1.62c0-.58-.6-.98-1.46-.98-1.2,0-1.84.74-1.94,2.25.54-.33,1.27-.61,2.16-.61,1.92,0,3.18,1.03,3.18,2.62s-1.3,2.69-3.34,2.69c-2.38,0-3.65-1.51-3.65-4.24s1.33-4.25,3.59-4.25c1.86,0,3.08,1,3.08,2.53h0ZM299.9,216.27c0-.74-.64-1.14-1.83-1.14-.74,0-1.35.32-1.81.65.23,1.12.82,1.63,1.94,1.63,1.03,0,1.7-.45,1.7-1.14h0Z" style="fill:#fefffe;"></path><path d="M135.97,213.07c0-.63-.52-.98-1.48-.98s-1.46.52-1.46,1.14h-1.64c0-1.63,1.1-2.69,3.1-2.69s3.1.98,3.1,2.52c0,1.18-.68,1.87-2.63,2.66-1.16.48-1.93,1.05-1.93,1.67h4.72v1.47h-6.52v-1.14c0-1.34,1.13-2.56,3.15-3.39,1.23-.52,1.58-.79,1.58-1.27h0Z" style="fill:#fefffe;"></path><path d="M142.28,214.79c0-2.73,1.29-4.25,3.64-4.25s3.64,1.51,3.64,4.25-1.31,4.25-3.64,4.25-3.64-1.51-3.64-4.25ZM145.92,217.48c1.32,0,2.01-.94,2.01-2.69s-.69-2.7-2.01-2.7-2.02.94-2.02,2.7.7,2.69,2.02,2.69Z" style="fill:#fefffe;"></path><path d="M154.17,214.79c0-2.73,1.29-4.25,3.64-4.25s3.64,1.51,3.64,4.25-1.31,4.25-3.64,4.25-3.64-1.51-3.64-4.25ZM157.81,217.48c1.32,0,2.01-.94,2.01-2.69s-.69-2.7-2.01-2.7-2.02.94-2.02,2.7.7,2.69,2.02,2.69Z" style="fill:#fefffe;"></path><path d="M172.06,213.07h-1.62c0-.58-.6-.98-1.47-.98-1.21,0-1.83.74-1.93,2.25.54-.33,1.27-.62,2.16-.62,1.92,0,3.18,1.03,3.18,2.61s-1.29,2.7-3.34,2.7c-2.39,0-3.64-1.52-3.64-4.25s1.32-4.25,3.58-4.25c1.86,0,3.09.99,3.09,2.52v.02ZM170.75,216.34c0-.73-.64-1.14-1.83-1.14-.73,0-1.34.33-1.8.65.22,1.12.82,1.63,1.93,1.63,1.03,0,1.7-.45,1.7-1.14h0Z" style="fill:#fefffe;"></path><path d="M271.4,62c-18.41,0-31.19,13.35-31.19,30.86s11.74,29.64,29.5,29.64c18.7,0,31-13.61,31-30.86s-11.65-29.65-29.31-29.65h0ZM271.58,117.74c-14.28,0-23.67-11.44-23.67-27.39,0-14.13,8.83-23.58,21.61-23.58,14.56,0,23.68,11.44,23.68,26.87,0,14.3-8.83,24.1-21.61,24.1h0Z" style="fill:#fefffe;"></path><path d="M116.17,115.62c-.78-1.26-1.6-2.79-2.39-4.67l-5-10.87-2.77-6.02-2.05-4.44-12.71-27.63-12.84,27.63-2.06,4.44-3.1,6.66-4.71,10.14c-1.08,2.41-2.22,4.26-3.33,5.67-.55.7-2.5,3.92-6.72,2.64-2.56-.78-4.47-3.61-4.47-6.27v-42.64c0-7.37,3.37-8.17,4.09-8.26h-15.38c.81.09,4.09,1.06,4.09,8.26v19.35H11.29v-19.35c0-7.37,3.28-8.17,4-8.26H0c.81.09,4,1.06,4,8.26v42.64c0,1.73-.18,3.1-.48,4.18-.94,3.48-2.98,4.02-3.52,4.08h15.37c-.67-.08-3.72-.88-4.05-7.13-.02-.36-.03-.73-.03-1.14v-18.85h35.53v18.85c0,2.05-.27,3.59-.67,4.74-1.05,3.07-3.03,3.46-3.42,3.52h33.2c-.67-.08-3.64-.62-3.64-4.26,0-1,.38-2.23.97-3.79.15-.38.3-.77.47-1.18l6.25-13.65,19.75-.1,6.38,14.11c1.25,2.83,1.63,4,1.63,5.24,0,.55-.08,1.03-.24,1.47-.45,1.27-1.51,1.97-2.73,2.17h17.53c-.61-.06-3.19-.8-6.14-5.55h0ZM85.43,94.07l-4.31-.03,1.93-4.41,6.77-15.54,6.62,15.54,1.89,4.44.04.08-12.93-.08h-.01Z" style="fill:#fefffe;"></path><path d="M337.15,62c-18.41,0-31.19,13.35-31.19,30.86s11.74,29.64,29.5,29.64c18.7,0,31-13.61,31-30.86s-11.65-29.65-29.31-29.65h0ZM337.33,117.74c-14.28,0-23.67-11.44-23.67-27.39,0-14.13,8.83-23.58,21.61-23.58,14.56,0,23.68,11.44,23.68,26.87,0,14.3-8.83,24.1-21.61,24.1h0Z" style="fill:#fefffe;"></path><path d="M398.32,62h-28.39c.89.18,4.35,1.15,4.35,8.44v41.76c0,8-3.46,8.89-4.18,8.97h27.94c20.35,0,30.12-13.77,30.12-30.12s-11.11-29.05-29.85-29.05h.01ZM398.85,116.73h-17.37v-50.38h15.06c15.81,0,23.81,9.24,23.81,25.23,0,12-6.13,25.15-21.5,25.15Z" style="fill:#fefffe;"></path><path d="M245.39,62h-10.96c2.4,1.62,1.87,3.77,1.16,5.57-.79,2.02-17.49,40.91-17.95,41.54-.23-.4-5.29-13.35-9.71-23.47-.33-.76-.52-1.41-.14-2.28,2.12-4.7,4.12-9.43,6.16-14.15,1.27-2.94,2.44-5.38,5.11-7.21h-9.64c1.89,1.78,1.87,2.87,1.02,5.06-1.1,2.83-2.26,5.64-3.4,8.45-.49,1.21-1,2.41-1.62,3.89-.39-.64-.65-.98-.82-1.35-1.54-3.54-3.08-7.08-4.56-10.63-.46-1.1-.86-2.28-.3-3.45.26-.55.71-1.08,1.88-1.97h-14.86c1.51.78,3.13,2.91,4.09,4.97,3.4,7.28,6.63,14.63,9.86,21.96.24.55.26,1.45.04,2.01-2.29,5.79-7.38,17.87-7.75,18.43-.99-2.29-13.04-29.85-18.2-41.63-.26-.59-.43-1.21-.61-1.82-.41-1.4.3-2.88,1.54-3.92h-27.29c.53.09,2.13.62,2.13,2.84,0,1.42-.89,3.38-2.84,6.75l-11.11,19.19-11.73-20.17c-1.69-2.84-2.4-4.53-2.4-5.78,0-2.31,1.78-2.75,2.13-2.84h-16.35c.53.09,3.73,1.06,8.26,8.71l14.93,25.68v16.53c0,7.37-3.38,8.17-4.09,8.26h15.46c-.8-.09-4.09-1.07-4.09-8.26v-16.61l14.84-25.41c1.91-3.27,3.58-5.34,4.92-6.65,1.67-1.63,4.44-1.39,5.78.53.6.87,1.1,1.78,1.5,2.68,4.39,9.84,24.98,54.92,25.18,54.9,4.05-9.35,8.09-18.7,12.14-28.05,4.23,9.34,8.46,18.67,12.78,28.22.48-.56,19.7-44.93,23.13-52.87,2.53-5.86,3.89-6.46,6.36-7.63l.02-.02Z" style="fill:#fefffe;"></path><path d="M305.02,45.84h11.98s-3.24-.75-3.24-6.4V6.43c0-5.71,3.17-6.4,3.17-6.4h-11.91s3.16.82,3.16,6.4v14.98h-27.53V6.43c0-5.71,3.1-6.4,3.1-6.4h-11.84s3.1.82,3.1,6.4v33.02c0,.44-.03.85-.08,1.24-.49,3.81-5.39,5.13-7.8,2.24-.06-.07-.11-.14-.17-.22-.14-.19-.28-.39-.43-.61-.36-.53-.72-1.14-1.09-1.83-.09-.17-.18-.35-.28-.53-.06-.12-.13-.25-.19-.38-.09-.18-.17-.36-.26-.55-.13-.28-.26-.57-.39-.87L246.88.03s-17.6,37.83-17.6,37.84c-1.14,2.44-2.52,5.44-4.35,6.3-1.07.5-2.37.34-3.29-.41-.48-.39-.9-1.14-1.25-1.7-.03-.05-8.06-14.4-8.06-14.4-.26-.44-.52-.84-.77-1.21-.71-1.06-1.41-1.81-1.72-2.13,3.19-.34,5.07-1.67,5.48-1.99,3.53-2.29,4.77-6.27,4.77-10.14C220.09,5.1,215.35.03,206.34.03h-19.66c.55.13,4.11.82,4.11,6.53,0,1.31,0,2.62.02,3.93.02,3.06.03,6.12.05,9.17.02,3.5.04,7.01.06,10.51,0,2.65.04,5.3.04,7.95,0,5.72-4.37,7.32-7.03,4.88-.68-.63-1.27-1.36-1.79-2.12-1.39-2.03-2.16-4.22-3.35-6.79-.63-1.37-1.26-2.73-1.89-4.1-.76-1.65-1.52-3.31-2.28-4.96-.84-1.82-1.67-3.63-2.51-5.45-.84-1.83-1.69-3.66-2.53-5.49-.78-1.7-1.56-3.4-2.35-5.1-.66-1.44-1.33-2.88-1.99-4.32-.48-1.04-2.13-4.63-2.14-4.64-.2.42-1.65,3.54-2.17,4.67-.76,1.64-1.53,3.28-2.29,4.92-.91,1.95-1.82,3.91-2.73,5.86-.96,2.06-1.92,4.12-2.87,6.18-.91,1.96-1.82,3.91-2.73,5.87-.77,1.66-1.54,3.32-2.32,4.98-.54,1.16-1.08,2.33-1.62,3.49-.21.46-.43.92-.64,1.38-1.39,3-3.1,6.19-6.12,7.83-.53.29-1.08.43-1.64.64,1.48.06,2.99,0,4.47,0h8.78c-1.51-.24-2.62-1.24-2.8-2.79-.17-1.48.54-3.04,1.09-4.36.56-1.22,1.12-2.44,1.68-3.66.86-1.87,1.72-3.75,2.58-5.62.2-.43.39-.86.6-1.29,1.73,0,3.46-.02,5.19-.03,2.74-.02,5.49-.03,8.23-.05.63,0,1.26,0,1.89-.01.82,1.82,1.65,3.64,2.47,5.46s1.67,3.67,2.47,5.48c.57,1.29,1.29,2.69,1.26,4.14-.03,1.39-.9,2.51-2.31,2.73,1.53,0,3.07,0,4.6,0h9-.06c3.29,0,7.33,0,10.62,0h1.66c-.62-.06-3.17-.75-3.17-6.33v-14.59h1.72c2.48,0,6.46-.13,8.73,3.99l9.64,16.93h18.67c-1.59-.29-2.81-1.76-2.81-3.3,0-.72.25-1.6.66-2.69.07-.18.14-.37.21-.56.08-.19.16-.39.24-.6l4.85-10.57,15.31-.09,4.94,10.93c.3.69.54,1.25.72,1.73.15.39.27.72.35,1.02.14.5.2.89.2,1.31,0,.97-.33,1.68-.84,2.14-.4.37-.91.59-1.46.68h26.47s-3.17-.75-3.17-6.4v-14.6h27.53v14.6c0,5.78-2.75,6.33-3.16,6.4h0ZM168.61,24.93l-13.36-.09h0l6.74-15.45,6.62,15.53h0ZM205.16,21.31h-9.08V3.4h9.08c6.82,0,9.21,4.38,9.21,9.13,0,5.09-2.59,8.78-9.21,8.78ZM239.02,24.84l6.74-15.45h0l6.62,15.54-13.36-.09Z" style="fill:#fefffe;"></path><path d="M126.84,20.41c-6.53-3.22-10.7-5.51-10.7-9.98,0-3.67,3.3-7.15,8.76-7.15,4.96,0,9.26,2.36,11.2,8.34V2.95c-2.23-1.64-6.32-2.95-10.34-2.95-7.75,0-14.65,4.4-14.65,11.55,0,6.56,5.31,9.58,10.77,12.34,7.03,3.48,11.41,5.78,11.41,11.22,0,4.99-4.74,7.35-9.55,7.35-5.96,0-10.7-2.76-13.21-10.04v9.98c3.23,2.03,7.61,3.41,12.35,3.41,6.18,0,10.55-1.71,13.14-4.66,1.79-2.03,2.66-4.6,2.66-7.15,0-7.48-6.03-10.7-11.85-13.59h0Z" style="fill:#fefffe;"></path><path d="M8.98,163.13H0l3.01-3.37c2.33-2.6,3.56-4.29,3.56-5.99s-1.12-2.56-2.37-2.56-2,.78-2,1.62c0,.59.35,1.1,1.02,1.25l-1.49,1.51c-.76-.25-1.41-1.12-1.41-2.17,0-1.82,1.43-3.62,4.4-3.62,2.02,0,3.99,1.21,3.99,3.7,0,2.06-1.76,4.11-4.25,6.89l-1,1.12h3.58c1.53,0,2.15-.67,2.35-.98l-.43,2.6h.02Z" style="fill:#fefffe;"></path><path d="M16.49,163.43c-2.58,0-4.42-2.29-4.42-6.44,0-4.38,1.8-7.18,4.5-7.18s4.42,2.5,4.42,6.52c0,4.29-1.74,7.1-4.5,7.1h0ZM16.34,151.29c-1.27,0-2.25,1.47-2.25,4.64,0,4.27,1.19,6.03,2.58,6.03,1.23,0,2.25-1.31,2.25-4.64,0-4.27-1.19-6.03-2.58-6.03Z" style="fill:#fefffe;"></path><path d="M37.55,150.1h3.58c-.12.02-.82.23-1.88,2.09l-3.13,5.44v3.5c0,1.74.72,1.98.92,2h-4.05c.16-.02.94-.22.94-2v-3.44l-3.11-5.54c-1.02-1.8-1.76-2.02-1.9-2.05h4.36c-.1.02-.53.12-.53.69,0,.29.16.69.51,1.31l2.15,3.84,2.02-3.56c.45-.78.65-1.25.65-1.59,0-.55-.41-.67-.53-.69Z" style="fill:#fefffe;"></path><path d="M52.28,163.13h-8.36c.14-.02.94-.2.94-2.09v-8.92c0-1.76-.88-1.98-1.06-2.02h8.16v2.92c-.27-.84-.67-1.55-2.25-1.55h-2.68v4.34h2.25c1.29,0,1.51-.53,1.55-.65v2.68c-.04-.12-.23-.65-1.51-.65h-2.29v4.54h2.84c1.72,0,2.31-.45,2.94-1.74l-.53,3.13h0Z" style="fill:#fefffe;"></path><path d="M68.68,163.13h-4.44c.12,0,.7-.12.7-.84,0-.27-.12-.63-.31-1.12l-.59-1.55h-5.15l-.55,1.49c-.18.47-.27.8-.27,1.08,0,.78.59.92.76.94h-3.7c.14-.02.88-.23,1.7-2.37l4.15-10.67h1.68l4.23,10.71c.8,2.07,1.62,2.31,1.78,2.33h.01ZM61.44,152.9l-2.06,5.42h4.15l-2.09-5.42Z" style="fill:#fefffe;"></path><path d="M78.7,163.13l-2.41-4.31c-.49-.86-.86-1.19-1.45-1.19h-.33v3.52c0,1.72.74,1.96.94,1.98h-3.97c.16-.02.94-.22.94-1.98v-9c0-1.78-.88-2.02-1.06-2.05h5.01c2.8,0,4.38,1.74,4.38,3.7,0,1.6-1.06,3.31-3.35,3.54.33.14.69.55,1,1.1l1.98,3.4c.63,1.06,1.47,1.23,1.72,1.29h-3.41,0ZM75.96,151.47h-1.47v4.89h1.47c1.88,0,2.6-1.19,2.6-2.49s-.88-2.41-2.6-2.41h0Z" style="fill:#fefffe;"></path><path d="M88.31,163.43c-1.37,0-2.74-.39-3.64-1v-3.27c.86,2.09,2.21,2.78,3.8,2.78,1.23,0,2.41-.65,2.41-1.8,0-1.59-1.7-2.23-3.33-3.07-1.43-.74-2.82-1.64-2.82-3.52,0-2.41,1.92-3.72,4.36-3.72,1.17,0,2.41.39,3.05.88v2.72c-.39-.78-1.49-2.15-3.27-2.15-1.39,0-2.19.78-2.19,1.76,0,1.23,1.23,1.84,2.62,2.5,1.74.82,3.64,1.78,3.64,4.13s-1.84,3.76-4.64,3.76h0Z" style="fill:#fefffe;"></path><path d="M108.02,163.43c-3.72,0-6.22-2.88-6.22-6.65s2.78-6.99,6.61-6.99,6.18,2.86,6.18,6.65-2.64,6.99-6.58,6.99h.01ZM107.98,151.31c-2.23,0-3.99,1.84-3.99,4.87,0,3.41,1.82,5.7,4.44,5.7,2.25,0,3.99-1.92,3.99-4.95,0-3.23-1.74-5.62-4.44-5.62Z" style="fill:#fefffe;"></path><path d="M123.23,151.47h-2.6v4.34h2.29c1.29,0,1.49-.63,1.53-.76v2.92c-.02-.1-.22-.76-1.53-.76h-2.29v3.97c0,1.72.76,1.94.96,1.96h-4.11c.16-.02.98-.22.98-2.02v-9.02c0-1.74-.92-1.96-1.1-2h8.22v2.9c-.22-.57-.59-1.53-2.35-1.53Z" style="fill:#fefffe;"></path><path d="M142.41,163.13h-8.36c.14-.02.94-.2.94-2.09v-8.92c0-1.76-.88-1.98-1.06-2.02h8.16v2.92c-.27-.84-.67-1.55-2.25-1.55h-2.68v4.34h2.25c1.29,0,1.51-.53,1.55-.65v2.68c-.04-.12-.23-.65-1.51-.65h-2.29v4.54h2.84c1.72,0,2.31-.45,2.94-1.74l-.53,3.13h0Z" style="fill:#fefffe;"></path><path d="M157.78,163.13h-4.64c.1,0,.55-.1.55-.69,0-.33-.2-.78-.67-1.51l-1.74-2.64-1.8,2.56c-.57.8-.78,1.27-.78,1.61,0,.55.39.65.53.67h-3.99c.1-.02.88-.22,2.39-2.35l2.74-3.87-3.03-4.68c-1.19-1.86-1.96-2.09-2.09-2.13h4.56c-.08.02-.53.12-.53.67,0,.29.18.71.59,1.35l1.86,2.88,1.9-2.76c.51-.74.74-1.19.74-1.51,0-.49-.37-.61-.47-.63h3.87c-.12.02-.9.22-2.13,1.98l-3.01,4.3,2.86,4.4c1.31,2.06,2.15,2.33,2.31,2.35h-.02Z" style="fill:#fefffe;"></path><path d="M165.85,163.43c-4.36,0-6.5-3.23-6.5-6.54,0-3.5,2.37-7.1,7.01-7.1,1.29,0,2.62.35,3.44.8v3.44c-.61-1.8-1.96-2.74-3.72-2.74-2.94,0-4.42,2.6-4.42,5.22s1.51,5.32,4.52,5.32c1.39,0,2.92-.78,3.89-2.02v1.76c-.92,1.08-2.49,1.84-4.23,1.84v.02Z" style="fill:#fefffe;"></path><path d="M181.5,163.13h-8.36c.14-.02.94-.2.94-2.09v-8.92c0-1.76-.88-1.98-1.06-2.02h8.16v2.92c-.27-.84-.67-1.55-2.25-1.55h-2.68v4.34h2.25c1.29,0,1.51-.53,1.55-.65v2.68c-.04-.12-.23-.65-1.51-.65h-2.29v4.54h2.84c1.72,0,2.31-.45,2.94-1.74l-.53,3.13h0Z" style="fill:#fefffe;"></path><path d="M189.57,158.1c-.68,0-1.45-.12-1.84-.23v3.29c0,1.72.82,1.96,1.02,1.98h-4.01c.16-.02.94-.22.94-1.98v-9.02c0-1.78-.86-2-1.04-2.04h5.36c2.72,0,4.17,1.86,4.17,3.88,0,2.23-1.64,4.13-4.6,4.13h0ZM189.34,151.47h-1.6v5.01c.37.12,1.04.21,1.68.21,1.62,0,2.54-1.13,2.54-2.62s-.92-2.6-2.62-2.6h0Z" style="fill:#fefffe;"></path><path d="M205.86,151.47h-2.19v9.67c0,1.76.78,1.98.98,2h-4.17c.16-.02.96-.2.96-2v-9.67h-2.43c-1.39,0-1.7.74-2.09,1.68.1-1.02.18-2.04.25-3.05h10.78l.23,3.05c-.35-.96-.72-1.68-2.33-1.68h0Z" style="fill:#fefffe;"></path><path d="M214.99,163.13h-4.05c.14-.02.96-.18.96-1.88v-9.22c0-1.66-.8-1.9-.96-1.94h4.05c-.12.02-.94.23-.94,1.94v9.22c0,1.66.78,1.86.94,1.88Z" style="fill:#fefffe;"></path><path d="M224.03,163.43c-3.72,0-6.22-2.88-6.22-6.65s2.78-6.99,6.61-6.99,6.18,2.86,6.18,6.65-2.64,6.99-6.58,6.99h.01ZM223.99,151.31c-2.23,0-3.99,1.84-3.99,4.87,0,3.41,1.82,5.7,4.44,5.7,2.25,0,3.99-1.92,3.99-4.95,0-3.23-1.74-5.62-4.44-5.62Z" style="fill:#fefffe;"></path><path d="M241.96,150.1h3.62c-.14.02-.98.2-.98,1.96v11.08h-1.41s-.43-1.25-1.8-2.96l-5.28-6.57v7.57c0,1.72.92,1.94,1.1,1.96h-3.72c.14-.02.98-.18.98-1.96v-8.94c0-1.43-1.33-2.02-1.6-2.13h3.29l6.83,8.77v-6.81c0-1.7-.84-1.92-1.02-1.96h0Z" style="fill:#fefffe;"></path><path d="M261.31,163.13h-4.44c.12,0,.7-.12.7-.84,0-.27-.12-.63-.31-1.12l-.59-1.55h-5.15l-.55,1.49c-.18.47-.27.8-.27,1.08,0,.78.59.92.76.94h-3.7c.14-.02.88-.23,1.7-2.37l4.15-10.67h1.68l4.23,10.71c.8,2.07,1.62,2.31,1.78,2.33h.01ZM254.06,152.9l-2.06,5.42h4.15l-2.09-5.42Z" style="fill:#fefffe;"></path><path d="M272.45,163.13h-8.38c.12,0,.86-.18.86-2.19v-8.83c0-1.76-.76-1.98-.92-2.02h3.99c-.18.02-.96.23-.96,2.02v9.63h2.74c1.92,0,2.39-.25,3.11-1.61l-.45,2.99h.01Z" style="fill:#fefffe;"></path><path d="M287.82,163.43c-4.36,0-6.5-3.23-6.5-6.54,0-3.5,2.37-7.1,7.01-7.1,1.29,0,2.62.35,3.44.8v3.44c-.61-1.8-1.96-2.74-3.72-2.74-2.94,0-4.42,2.6-4.42,5.22s1.51,5.32,4.52,5.32c1.39,0,2.92-.78,3.89-2.02v1.76c-.92,1.08-2.49,1.84-4.23,1.84v.02Z" style="fill:#fefffe;"></path><path d="M303.46,163.13h-8.36c.14-.02.94-.2.94-2.09v-8.92c0-1.76-.88-1.98-1.06-2.02h8.16v2.92c-.27-.84-.67-1.55-2.25-1.55h-2.68v4.34h2.25c1.29,0,1.51-.53,1.55-.65v2.68c-.04-.12-.23-.65-1.51-.65h-2.29v4.54h2.84c1.72,0,2.31-.45,2.94-1.74l-.53,3.13h0Z" style="fill:#fefffe;"></path><path d="M315.09,163.13h-8.38c.12,0,.86-.18.86-2.19v-8.83c0-1.76-.76-1.98-.92-2.02h3.99c-.18.02-.96.23-.96,2.02v9.63h2.74c1.92,0,2.39-.25,3.11-1.61l-.45,2.99h.01Z" style="fill:#fefffe;"></path><path d="M326.56,163.13h-8.36c.14-.02.94-.2.94-2.09v-8.92c0-1.76-.88-1.98-1.06-2.02h8.16v2.92c-.27-.84-.67-1.55-2.25-1.55h-2.68v4.34h2.25c1.29,0,1.51-.53,1.55-.65v2.68c-.04-.12-.23-.65-1.51-.65h-2.29v4.54h2.84c1.72,0,2.31-.45,2.94-1.74l-.53,3.13h0Z" style="fill:#fefffe;"></path><path d="M335.79,163.13h-6.01c.14-.02.94-.2.94-2.09v-8.9c0-1.78-.86-2-1.04-2.04h5.68c2.49,0,3.6,1.57,3.6,3.13,0,1.41-.92,2.74-2.35,3.05,1.88.25,2.97,1.76,2.97,3.39,0,1.72-1.27,3.46-3.8,3.46h.01ZM334.59,151.47h-1.72v4.25h1.82c1.23,0,2-.9,2-2.25,0-1.15-.84-2-2.09-2h-.01ZM334.79,157.09h-1.92v4.66h2.09c1.82,0,2.35-1.1,2.35-2.19,0-1.45-.9-2.47-2.52-2.47Z" style="fill:#fefffe;"></path><path d="M349.72,163.13l-2.41-4.31c-.49-.86-.86-1.19-1.45-1.19h-.33v3.52c0,1.72.74,1.96.94,1.98h-3.97c.16-.02.94-.22.94-1.98v-9c0-1.78-.88-2.02-1.06-2.05h5.01c2.8,0,4.38,1.74,4.38,3.7,0,1.6-1.06,3.31-3.35,3.54.33.14.69.55,1,1.1l1.98,3.4c.63,1.06,1.47,1.23,1.72,1.29h-3.41,0ZM346.98,151.47h-1.47v4.89h1.47c1.88,0,2.6-1.19,2.6-2.49s-.88-2.41-2.6-2.41h0Z" style="fill:#fefffe;"></path><path d="M367.36,163.13h-4.44c.12,0,.7-.12.7-.84,0-.27-.12-.63-.31-1.12l-.59-1.55h-5.15l-.55,1.49c-.18.47-.27.8-.27,1.08,0,.78.59.92.76.94h-3.7c.14-.02.88-.23,1.7-2.37l4.15-10.67h1.68l4.23,10.71c.8,2.07,1.62,2.31,1.78,2.33h0ZM360.12,152.9l-2.06,5.42h4.15l-2.09-5.42Z" style="fill:#fefffe;"></path><path d="M377.09,151.47h-2.19v9.67c0,1.76.78,1.98.98,2h-4.17c.16-.02.96-.2.96-2v-9.67h-2.43c-1.39,0-1.7.74-2.09,1.68.1-1.02.18-2.04.25-3.05h10.78l.23,3.05c-.35-.96-.72-1.68-2.33-1.68h0Z" style="fill:#fefffe;"></path><path d="M386.22,163.13h-4.05c.14-.02.96-.18.96-1.88v-9.22c0-1.66-.8-1.9-.96-1.94h4.05c-.12.02-.94.23-.94,1.94v9.22c0,1.66.78,1.86.94,1.88Z" style="fill:#fefffe;"></path><path d="M395.26,163.43c-3.72,0-6.22-2.88-6.22-6.65s2.78-6.99,6.61-6.99,6.18,2.86,6.18,6.65-2.64,6.99-6.58,6.99h.01ZM395.22,151.31c-2.23,0-3.99,1.84-3.99,4.87,0,3.41,1.82,5.7,4.44,5.7,2.25,0,3.99-1.92,3.99-4.95,0-3.23-1.74-5.62-4.44-5.62Z" style="fill:#fefffe;"></path><path d="M413.19,150.1h3.62c-.14.02-.98.2-.98,1.96v11.08h-1.41s-.43-1.25-1.8-2.96l-5.28-6.57v7.57c0,1.72.92,1.94,1.1,1.96h-3.72c.14-.02.98-.18.98-1.96v-8.94c0-1.43-1.33-2.02-1.6-2.13h3.29l6.83,8.77v-6.81c0-1.7-.84-1.92-1.02-1.96h-.01Z" style="fill:#fefffe;"></path><path d="M423.53,163.43c-1.37,0-2.74-.39-3.64-1v-3.27c.86,2.09,2.21,2.78,3.8,2.78,1.23,0,2.41-.65,2.41-1.8,0-1.59-1.7-2.23-3.33-3.07-1.43-.74-2.82-1.64-2.82-3.52,0-2.41,1.92-3.72,4.36-3.72,1.17,0,2.41.39,3.05.88v2.72c-.39-.78-1.49-2.15-3.27-2.15-1.39,0-2.19.78-2.19,1.76,0,1.23,1.23,1.84,2.62,2.5,1.74.82,3.64,1.78,3.64,4.13s-1.84,3.76-4.64,3.76h.01Z" style="fill:#fefffe;"></path></g></svg> 